<svg id="SvgjsSvg1013" width="256" height="256" xmlns="http://www.w3.org/2000/svg" version="1.1" xmlns:xlink="http://www.w3.org/1999/xlink" xmlns:svgjs="http://svgjs.com/svgjs"><defs id="SvgjsDefs1014"></defs><g id="SvgjsG1015"><svg xmlns="http://www.w3.org/2000/svg" enable-background="new 0 0 24 24" viewBox="0 0 24 24" width="256" height="256"><path fill="#e9f4ea" d="M24,4v16c0,2.2-1.8,4-4,4H4c-0.1,0-0.1,0-0.2,0C1.7,23.9,0,22.1,0,20V4c0-2.2,1.8-4,4-4h16C22.2,0,24,1.8,24,4z" class="colore9e9f4 svgShape"></path><path fill="#becebe" d="M16.7,24H4c-2.2,0-4-1.8-4-4v-3.3l2.3-2.3c1.3-1.3,3.5-1.3,4.8,0L16.7,24z" class="colorbebece svgShape"></path><path fill="#d5e2d8" d="M24 14.3V20c0 2.2-1.8 4-4 4H4c-.1 0-.1 0-.2 0l12.5-12.6c1.3-1.3 3.5-1.3 4.8 0L24 14.3zM14.6 6.3H13v4.1c0 .6-.5 1-1 1s-1-.4-1-1V6.3H9.4c-.6 0-1-.7-.6-1.2L11.4 2c.3-.4.9-.4 1.1 0l2.6 3.2C15.5 5.6 15.2 6.3 14.6 6.3z" class="colord5d5e2 svgShape"></path></svg></g></svg>